<svg width="497" height="123" viewBox="0 0 497 123" fill="none" xmlns="http://www.w3.org/2000/svg">
<path d="M60.2295 122.096C43.7751 122.096 28.6434 116.095 17.6153 105.199C6.24972 93.966 0 78.296 0 61.0482C0 43.8004 6.24972 28.1305 17.6153 16.8972C28.6434 6.00098 43.7751 0 60.2295 0C76.684 0 91.8156 6.00098 102.844 16.8972C114.209 28.117 120.459 43.8004 120.459 61.0347C120.459 78.269 114.209 93.9525 102.844 105.186C91.8156 116.082 76.684 122.083 60.2295 122.083V122.096ZM60.2295 25.4738C38.9292 25.4738 24.6209 39.7683 24.6209 61.0482C24.6209 82.3281 38.9292 96.6226 60.2295 96.6226C81.5299 96.6226 95.8381 82.3281 95.8381 61.0482C95.8381 39.7683 81.5299 25.4738 60.2295 25.4738Z" fill="#091018"/>
<path d="M181.431 122.46C152.774 122.46 131.177 100.547 131.177 71.4991C131.177 42.4517 152.787 20.538 181.431 20.538C191.946 20.538 205.309 23.2215 205.309 23.2215L200.328 47.3873C200.328 47.3873 192.122 45.2027 183.267 45.2027C167.379 45.2027 157.66 58.7555 157.66 71.5126C157.66 84.2698 167.393 97.8225 183.267 97.8225C189.894 97.8225 200.315 96.1099 200.315 96.1099L204.257 120.019C204.257 120.019 192.459 122.487 181.417 122.487L181.431 122.46Z" fill="#091018"/>
<path d="M272.924 122.149C266.364 122.149 256.834 121.151 248.735 116.418C238.827 110.633 233.806 100.748 233.806 87.0605V46.8876H216.19V23.9355C238.463 21.8588 239.192 6.74172 239.084 0.794678H262.652C262.949 6.06745 262.301 16.2624 258.656 22.4117H279.876V46.8876H259.588V87.0605C259.588 91.2005 261.302 94.3561 264.528 96.2036C266.796 97.4982 269.765 98.159 273.369 98.159C274.895 98.159 276.258 98.0376 277.243 97.9162V121.988C276.285 122.068 274.787 122.149 272.897 122.149H272.924Z" fill="#091018"/>
<path d="M335.219 122.097C305.644 122.097 292.038 99.8191 289.365 80.7374C286.112 57.4616 296.87 29.8975 323.732 22.2513C328.78 20.8084 334.342 20.0532 339.795 20.0532C347.624 20.0532 359.044 21.631 368.965 29.1154C382.112 39.0271 388.78 55.8838 388.78 79.227V121.166H364.133V110.473C364.133 110.473 355.561 122.083 335.219 122.083V122.097ZM338.324 45.136C323.611 45.136 313.716 55.5602 313.716 71.0549C313.716 86.5495 323.611 96.9737 338.324 96.9737C353.037 96.9737 362.931 86.5495 362.931 71.0549C362.931 55.5602 353.037 45.136 338.324 45.136Z" fill="#091018"/>
<path d="M431.394 121.139L387.133 21.509H416.64L444.352 81.9234L468.919 21.509H496.645L456.393 121.139H431.394Z" fill="#091018"/>
</svg>
