<svg width="828" height="208" viewBox="0 0 828 208" fill="none" xmlns="http://www.w3.org/2000/svg">
<path d="M360.039 183.669C342.429 183.669 326.235 177.247 314.433 165.585C302.269 153.563 295.581 136.793 295.581 118.334C295.581 99.8757 302.269 83.1055 314.433 71.0835C326.235 59.4223 342.429 53 360.039 53C377.649 53 393.843 59.4223 405.645 71.0835C417.809 83.0911 424.497 99.8757 424.497 118.32C424.497 136.764 417.809 153.549 405.645 165.571C393.843 177.232 377.649 183.654 360.039 183.654V183.669ZM360.039 80.2624C337.243 80.2624 321.93 95.5605 321.93 118.334C321.93 141.108 337.243 156.407 360.039 156.407C382.835 156.407 398.148 141.108 398.148 118.334C398.148 95.5605 382.835 80.2624 360.039 80.2624Z" fill="#091018"/>
<path d="M489.75 184.058C459.081 184.058 435.967 160.606 435.967 129.519C435.967 98.4323 459.095 74.98 489.75 74.98C501.003 74.98 515.305 77.852 515.305 77.852L509.974 103.714C509.974 103.714 501.191 101.376 491.715 101.376C474.712 101.376 464.31 115.881 464.31 129.534C464.31 143.186 474.726 157.691 491.715 157.691C498.808 157.691 509.96 155.858 509.96 155.858L514.178 181.446C514.178 181.446 501.552 184.087 489.735 184.087L489.75 184.058Z" fill="#091018"/>
<path d="M587.667 183.726C580.646 183.726 570.447 182.658 561.779 177.592C551.176 171.4 545.802 160.822 545.802 146.173V103.18H526.95V78.616C550.786 76.3934 551.566 60.2149 551.45 53.8503H576.673C576.991 59.4933 576.298 70.404 572.397 76.9851H595.106V103.18H573.394V146.173C573.394 150.604 575.229 153.981 578.681 155.958C581.108 157.343 584.286 158.051 588.143 158.051C589.776 158.051 591.235 157.921 592.289 157.791V183.552C591.264 183.639 589.66 183.726 587.638 183.726H587.667Z" fill="#091018"/>
<path d="M654.335 183.669C622.684 183.669 608.123 159.827 605.262 139.406C601.781 114.496 613.294 84.9966 642.042 76.8135C647.445 75.2693 653.396 74.4611 659.233 74.4611C667.611 74.4611 679.833 76.1496 690.451 84.1595C704.521 94.7671 711.657 112.807 711.657 137.789V182.674H685.279V171.229C685.279 171.229 676.106 183.655 654.335 183.655V183.669ZM657.658 101.305C641.912 101.305 631.323 112.461 631.323 129.044C631.323 145.626 641.912 156.782 657.658 156.782C673.404 156.782 683.993 145.626 683.993 129.044C683.993 112.461 673.404 101.305 657.658 101.305Z" fill="#091018"/>
<path d="M757.263 182.644L709.894 76.0192H741.473L771.131 140.675L797.423 76.0192H827.095L784.017 182.644H757.263Z" fill="#091018"/>
<path d="M205.418 100.527C205.309 97.6122 208.326 95.6323 210.978 96.8239V96.8424L226.155 103.625C226.959 103.973 227.489 104.798 227.471 105.678C226.593 146.54 201.505 184.743 161.076 200.27C114.43 218.18 62.866 199.995 36.9739 159.39L37.1204 159.94L1.55493 106.063C-1.5353 101.388 0.129091 99.4269 5.23071 101.718L37.0833 115.963C41.3985 117.887 44.5987 121.645 45.9153 126.191C46.537 128.354 47.2497 130.499 48.0725 132.644C55.8438 152.992 71.0575 169.088 90.9153 177.961C101.521 182.69 112.767 185.073 124.031 185.073C133.868 185.073 143.724 183.258 153.177 179.629C173.474 171.838 189.529 156.586 198.379 136.677C203.517 125.128 205.875 112.809 205.418 100.527ZM190.581 87.6119C195.656 89.8908 199.928 96.3414 200.037 101.928C200.329 116.447 196.46 130.966 188.446 143.997C182.641 153.443 169.735 165.536 159.987 170.718C138.866 181.929 114.732 182.665 93.3918 173.089C74.9178 164.782 60.7514 149.73 53.5042 130.709L53.4319 130.489C51.5882 125.619 53.9608 123.358 58.6887 125.49L72.2893 131.591C75.4292 133.007 79.9018 136.241 82.1106 138.906C96.7512 156.531 121.414 163.753 143.922 155.079C172.254 144.143 186.438 112.165 175.576 83.6237C175.138 82.4658 174.645 81.3443 174.134 80.2233L190.581 87.6119ZM123.558 27.4176C134.063 27.4176 144.531 29.6448 154.414 34.0797C172.903 42.3974 187.079 57.4683 194.332 76.5143C196.214 81.4461 193.821 83.7279 189.034 81.5748L175.406 75.4469C171.66 73.7539 168.244 71.3434 165.614 68.1783C150.943 50.6043 126.316 43.4279 103.845 52.0953L103.864 52.1139C75.5097 63.0632 61.3146 95.1007 72.1848 123.661C72.6232 124.783 73.0793 125.869 73.5725 126.936L57.2219 119.594C51.5769 117.055 47.8503 111.461 47.7405 105.241C47.1924 74.0124 65.8267 44.311 96.4094 32.5153C105.215 29.1109 114.387 27.4176 123.558 27.4176ZM86.76 6.901C133.45 -11.0446 185.081 7.19433 210.988 47.8746L246.226 101.033C249.318 105.712 247.652 107.676 242.548 105.382L210.805 91.1793C206.487 89.2526 203.285 85.5092 201.968 80.9586C201.346 78.8119 200.632 76.7015 199.827 74.5914C192.052 54.2239 176.83 38.1131 156.961 29.2321C137.092 20.3327 114.972 19.7452 94.6643 27.5436C61.3846 40.3331 41.2772 72.775 42.4114 106.63C42.5029 109.547 39.5027 111.529 36.8499 110.337L21.6272 103.529C20.8041 103.18 20.2925 102.354 20.3108 101.473C21.244 60.6094 46.3451 22.4246 86.76 6.901Z" fill="#FF1A45"/>
</svg>
