<svg width="532" height="385" viewBox="0 0 532 385" fill="none" xmlns="http://www.w3.org/2000/svg">
<path d="M64.4583 383.669C46.8485 383.669 30.6545 377.247 18.8521 365.585C6.68852 353.563 0 336.793 0 318.334C0 299.876 6.68852 283.106 18.8521 271.084C30.6545 259.422 46.8485 253 64.4583 253C82.068 253 98.2621 259.422 110.064 271.084C122.228 283.091 128.917 299.876 128.917 318.32C128.917 336.764 122.228 353.549 110.064 365.571C98.2621 377.232 82.068 383.654 64.4583 383.654V383.669ZM64.4583 280.262C41.6624 280.262 26.3496 295.56 26.3496 318.334C26.3496 341.108 41.6624 356.407 64.4583 356.407C87.2542 356.407 102.567 341.108 102.567 318.334C102.567 295.56 87.2542 280.262 64.4583 280.262Z" fill="#091018"/>
<path d="M194.169 384.058C163.5 384.058 140.387 360.606 140.387 329.519C140.387 298.432 163.515 274.98 194.169 274.98C205.423 274.98 219.724 277.852 219.724 277.852L214.394 303.714C214.394 303.714 205.611 301.376 196.134 301.376C179.131 301.376 168.73 315.881 168.73 329.534C168.73 343.186 179.145 357.691 196.134 357.691C203.227 357.691 214.379 355.858 214.379 355.858L218.598 381.446C218.598 381.446 205.972 384.087 194.155 384.087L194.169 384.058Z" fill="#091018"/>
<path d="M292.086 383.726C285.065 383.726 274.866 382.658 266.199 377.592C255.595 371.4 250.221 360.822 250.221 346.173V303.18H231.369V278.616C255.205 276.393 255.985 260.215 255.87 253.85H281.093C281.411 259.493 280.717 270.404 276.817 276.985H299.526V303.18H277.813V346.173C277.813 350.604 279.648 353.981 283.101 355.958C285.528 357.343 288.706 358.051 292.563 358.051C294.195 358.051 295.654 357.921 296.709 357.791V383.552C295.683 383.639 294.08 383.726 292.057 383.726H292.086Z" fill="#091018"/>
<path d="M358.755 383.669C327.104 383.669 312.542 359.827 309.682 339.406C306.2 314.496 317.714 284.997 346.461 276.814C351.864 275.269 357.816 274.461 363.652 274.461C372.031 274.461 384.252 276.15 394.87 284.159C408.94 294.767 416.077 312.807 416.077 337.789V382.674H389.698V371.229C389.698 371.229 380.525 383.655 358.755 383.655V383.669ZM362.077 301.305C346.331 301.305 335.742 312.461 335.742 329.044C335.742 345.626 346.331 356.782 362.077 356.782C377.824 356.782 388.413 345.626 388.413 329.044C388.413 312.461 377.824 301.305 362.077 301.305Z" fill="#091018"/>
<path d="M461.682 382.644L414.314 276.019H445.893L475.551 340.675L501.842 276.019H531.515L488.436 382.644H461.682Z" fill="#091018"/>
<path d="M346.838 100.527C346.729 97.6123 349.746 95.6323 352.397 96.8237V96.8423L367.574 103.625C368.378 103.974 368.908 104.798 368.89 105.678C368.012 146.54 342.925 184.744 302.496 200.271C255.85 218.181 204.285 199.996 178.393 159.391L178.54 159.941L142.974 106.063C139.884 101.389 141.548 99.4269 146.65 101.718L178.502 115.962C182.818 117.887 186.018 121.646 187.334 126.192C187.956 128.355 188.67 130.5 189.493 132.645C197.264 152.993 212.478 169.088 232.335 177.96C242.941 182.69 254.186 185.074 265.45 185.074C275.287 185.074 285.144 183.259 294.597 179.629C314.894 171.838 330.948 156.586 339.798 136.677C344.936 125.128 347.296 112.809 346.838 100.527ZM332.001 87.6128C337.076 89.8919 341.348 96.3424 341.458 101.929C341.75 116.448 337.879 130.967 329.865 143.998C324.06 153.444 311.154 165.537 301.406 170.719C280.285 181.93 256.151 182.665 234.811 173.09C216.337 164.783 202.172 149.731 194.924 130.709L194.851 130.489C193.007 125.619 195.381 123.358 200.109 125.49L213.708 131.591C216.848 133.006 221.321 136.242 223.53 138.907C238.17 156.531 262.833 163.754 285.341 155.08C313.673 144.145 327.857 112.166 316.996 83.6245C316.557 82.4667 316.064 81.3452 315.553 80.2241L332.001 87.6128ZM264.977 27.4185C275.482 27.4185 285.95 29.6448 295.833 34.0796C314.322 42.3974 328.5 57.4689 335.752 76.5151C337.634 81.4468 335.24 83.7287 330.454 81.5757L316.825 75.4478C313.08 73.7548 309.663 71.3442 307.033 68.1792C292.363 50.6052 267.735 43.4278 245.264 52.0952L245.283 52.1138C216.929 63.063 202.734 95.1015 213.604 123.662C214.042 124.784 214.499 125.87 214.993 126.937L198.641 119.594C192.996 117.055 189.269 111.461 189.16 105.241C188.612 74.0125 207.246 44.312 237.829 32.5161C246.634 29.1117 255.806 27.4185 264.977 27.4185ZM228.179 6.90088C274.87 -11.0448 326.501 7.19486 352.408 47.8755L387.645 101.034C390.737 105.713 389.072 107.676 383.967 105.382L352.224 91.1802C347.906 89.2535 344.704 85.5101 343.387 80.9595C342.765 78.8126 342.052 76.7024 341.247 74.5923C333.471 54.2246 318.249 38.114 298.38 29.2329C278.511 20.3335 256.392 19.746 236.083 27.5444C202.804 40.334 182.696 72.7757 183.831 106.63C183.922 109.548 180.922 111.53 178.269 110.337L163.047 103.53C162.224 103.181 161.712 102.355 161.73 101.474C162.663 60.6101 187.764 22.4245 228.179 6.90088Z" fill="#FF1A45"/>
</svg>
