<svg width="493" height="123" viewBox="0 0 493 123" fill="none" xmlns="http://www.w3.org/2000/svg">
<path d="M215.019 33.5493H217.054C241.627 33.5493 245.29 15.873 245.29 5.32687V0.718018H235.168V5.32687C235.168 13.921 230.446 23.1116 217.19 23.1116H213.798V33.5358H215.019V33.5493Z" fill="#091018"/>
<path d="M259.89 0.732056H249.361V5.3409C249.361 12.4846 247.638 26.6094 235.101 33.5634H276.878V23.1392H256.865C258.439 18.6524 259.89 12.9455 259.89 5.35447V0.745604V0.732056Z" fill="#091018"/>
<path d="M241.45 88.2052V41.6828C241.45 39.4326 239.632 37.6162 237.38 37.6162H213.798V48.7317H229.022V86.6057C229.022 99.7409 233.499 109.474 242.332 115.506C248.777 119.911 258.126 122.053 270.921 122.053H274.313V110.911H270.921C244.965 110.911 241.464 99.4427 241.464 88.2187L241.45 88.2052Z" fill="#091018"/>
<path d="M276.877 48.7317V37.6162H249.605C247.352 37.6162 245.534 39.4326 245.534 41.6828V88.2052C245.534 97.6262 247.488 106.83 270.921 106.83H274.313V95.6471H270.921C263.254 95.6471 260.12 94.5898 258.818 93.7087C257.244 92.6378 257.013 88.7881 257.013 86.5785V48.7046H276.891L276.877 48.7317Z" fill="#091018"/>
<path d="M154.952 98.2634C160.95 104.187 171.899 107.576 182.822 106.871C189.878 106.424 195.427 105.258 200.42 103.103L198.67 92.4752L195.061 93.4241C189.511 94.8746 184.898 95.7828 179.064 95.7828C165.21 95.7828 157.395 84.5995 156.54 73.3892H148.928C146.445 73.3892 144.518 75.5987 144.898 78.0522C146.106 85.9144 149.566 92.9361 154.966 98.2634H154.952Z" fill="#091018"/>
<path d="M136.689 69.3092C138.751 69.3092 140.461 67.7504 140.732 65.717C141.926 56.6213 145.861 48.4474 152.089 42.2796C159.457 35.0004 169.552 31.0015 180.515 31.0015C187.774 31.0015 195.074 32.3842 201.207 34.7835L203.5 23.0851C203.5 23.0851 194.776 20.0758 179.063 20.0758C150.895 20.0758 129.498 41.1139 128.521 69.3228H136.689V69.3092Z" fill="#091018"/>
<path d="M180.515 35.068C170.623 35.068 161.546 38.6602 154.952 45.1804C149.755 50.3043 146.349 57.0143 145.033 64.524C144.599 67.0182 146.512 69.3226 149.049 69.3226H156.539C157.394 58.1123 165.223 46.929 179.063 46.929C184.897 46.929 189.511 47.8372 195.06 49.2877L198.669 50.2366L200.528 38.9042C194.707 36.5049 187.502 35.0815 180.515 35.0815V35.068Z" fill="#091018"/>
<path d="M183.08 110.924C182.062 110.992 181.044 111.019 180.027 111.019C169.023 111.019 158.304 107.291 152.089 101.151C145.699 94.8339 141.737 86.416 140.651 77.0356C140.407 74.9616 138.697 73.3756 136.608 73.3756H128.521C129.511 101.598 150.895 122.623 179.063 122.623C185.034 122.623 194.857 121.416 200.298 119.478L202.958 118.529L201.099 107.237C195.929 109.325 190.203 110.477 183.08 110.924Z" fill="#091018"/>
<path d="M308.302 97.0707C314.516 103.455 323.078 106.98 332.4 106.98C350.676 106.98 363.824 95.7558 367.257 78.2015C367.746 75.6937 365.805 73.3757 363.254 73.3757H355.453C354.462 86.389 345.615 94.956 332.793 94.956C319.971 94.956 311.124 86.389 310.134 73.3757H302.97C300.446 73.3757 298.519 75.6531 298.953 78.1473C300.215 85.4943 303.431 92.0552 308.316 97.0707H308.302Z" fill="#091018"/>
<path d="M332.399 34.8921C323.078 34.8921 314.516 38.4165 308.302 44.8011C303.213 50.0335 299.93 56.9333 298.79 64.6599C298.424 67.1134 300.35 69.3094 302.833 69.3094H310.093C310.757 55.8217 319.685 46.8616 332.779 46.8616C345.873 46.8616 354.814 55.8217 355.466 69.3094H363.634C366.266 69.3094 368.098 67.1812 367.664 64.5921C364.76 47.5122 350.31 34.8921 332.399 34.8921Z" fill="#091018"/>
<path d="M290.513 69.3092C292.603 69.3092 294.326 67.7097 294.557 65.6357C295.601 56.4315 299.346 48.1762 305.384 41.9678C312.372 34.7834 321.965 30.8252 332.399 30.8252C352.982 30.8252 369.441 45.7634 371.924 65.6899C372.182 67.7503 373.892 69.3092 375.968 69.3092H383.132C377.908 21.0111 340.662 15.3856 318.111 21.7973C295.316 28.2768 284.027 48.9625 282.996 69.3092H290.513Z" fill="#091018"/>
<path d="M372.263 77.4424V121.362H383.539V78.9199C383.552 77.0221 383.498 75.1922 383.403 73.3757H376.32C374.068 73.3757 372.25 75.1922 372.25 77.4424H372.263Z" fill="#091018"/>
<path d="M332.4 111.046C321.965 111.046 312.373 107.088 305.385 99.9038C299.51 93.8716 295.805 85.8874 294.652 76.9815C294.381 74.9346 292.685 73.3757 290.609 73.3757H282.929C282.97 75.8022 283.146 78.215 283.472 80.5872C286.158 99.8089 299.889 122.27 329.727 122.27C343.173 122.27 351.694 119.234 356.701 116.414V121.362H368.18V88.5443C361.952 102.384 348.926 111.046 332.386 111.046H332.4Z" fill="#091018"/>
<path d="M439.17 104.119L473.336 21.0647H459.469L439.17 71.1792V104.119Z" fill="#091018"/>
<path d="M435.1 104.105V71.1792L412.21 21.0647H397.909L435.1 104.105Z" fill="#091018"/>
<path d="M477.732 21.0647L440.676 111.195C439.686 113.608 439.17 116.197 439.17 118.813V121.375H451.531L492.522 21.0647H477.718H477.732Z" fill="#091018"/>
<path d="M433.337 109.595L393.445 21.0647H379.144L423.649 121.375H435.101V117.824C435.101 114.99 434.504 112.185 433.337 109.595Z" fill="#091018"/>
<path d="M28.5205 94.1155C35.1962 100.717 43.9208 104.892 53.5816 106.22C56.051 106.559 58.2627 104.675 58.2627 102.195V94.5221C40.0266 93.6546 27.6929 81.3598 26.8516 63.1412H19.8774C17.4079 63.1412 15.5219 65.3101 15.834 67.7637C17.1501 78.0251 21.5463 87.2157 28.5205 94.1155Z" fill="#091018"/>
<path d="M104.816 67.7501C105.128 65.3101 103.242 63.1277 100.773 63.1277H93.7987C92.9439 81.3733 80.583 93.6681 62.3198 94.5086V102.195C62.3198 104.675 64.5314 106.559 67.0009 106.22C76.6752 104.906 85.4269 100.717 92.1162 94.1019C99.104 87.2022 103.487 78.0116 104.803 67.7501H104.816Z" fill="#091018"/>
<path d="M19.8639 59.0747H26.8381C27.6929 40.8561 40.0267 28.5613 58.2492 27.6938V20.0078C58.2492 17.5136 56.0375 15.643 53.5681 15.9819C43.9209 17.3103 35.1963 21.4989 28.5206 28.1005C21.5329 35.0002 17.1502 44.1908 15.8205 54.4658C15.5084 56.9058 17.3945 59.0882 19.8639 59.0882V59.0747Z" fill="#091018"/>
<path d="M62.3198 7.72661C62.3198 9.82771 63.9208 11.5492 66.0104 11.7661C77.1637 12.9455 87.2994 17.6085 94.9791 25.2131C102.944 33.0889 107.815 43.6486 109.009 55.3876C109.226 57.4751 110.949 59.0747 113.052 59.0747H120.637C120.162 42.6184 113.961 27.7073 103.025 16.9036C92.4147 6.42527 78.0185 0.474441 62.3198 0V7.72661Z" fill="#091018"/>
<path d="M58.2495 114.476C58.2495 112.375 56.6485 110.653 54.5725 110.436C43.4328 109.243 33.3242 104.58 25.658 97.0028C17.6933 89.1271 12.8222 78.5674 11.6282 66.8283C11.4111 64.7408 9.68791 63.1412 7.58479 63.1412H0C0.474897 79.5976 6.6757 94.5086 17.6119 105.312C28.2089 115.777 42.5779 121.728 58.2495 122.216V114.476Z" fill="#091018"/>
<path d="M109.009 66.8283C107.815 78.5674 102.944 89.1406 94.9791 97.0028C87.2994 104.594 77.1637 109.257 66.0104 110.45C63.9208 110.667 62.3198 112.388 62.3198 114.489V122.216C78.0185 121.742 92.4147 115.791 103.025 105.312C113.961 94.5086 120.162 79.584 120.637 63.1412H113.052C110.949 63.1412 109.226 64.7408 109.009 66.8283Z" fill="#091018"/>
<path d="M25.658 25.1996C33.3242 17.6221 43.4463 12.959 54.5725 11.7661C56.662 11.5492 58.2495 9.81415 58.2495 7.72661V0C42.5779 0.487997 28.2089 6.42527 17.6119 16.9036C6.6757 27.7073 0.474897 42.6319 0 59.0747H7.57122C9.67434 59.0747 11.3975 57.4751 11.6146 55.3876C12.8087 43.6486 17.6797 33.0753 25.6445 25.2131L25.658 25.1996Z" fill="#091018"/>
<path d="M92.1162 28.1002C85.4269 21.4852 76.6752 17.2965 67.0009 15.9816C64.5314 15.6427 62.3198 17.527 62.3198 20.0076V27.6936C80.583 28.534 92.9439 40.8288 93.7987 59.0744H100.773C103.242 59.0744 105.128 56.9056 104.816 54.452C103.5 44.1906 99.104 34.9864 92.1297 28.0867L92.1162 28.1002Z" fill="#091018"/>
</svg>
