<svg width="828" height="208" viewBox="0 0 828 208" fill="none" xmlns="http://www.w3.org/2000/svg">
<path d="M360.038 183.669C342.429 183.669 326.235 177.247 314.432 165.585C302.269 153.563 295.58 136.793 295.58 118.334C295.58 99.8757 302.269 83.1055 314.432 71.0835C326.235 59.4223 342.429 53 360.038 53C377.648 53 393.842 59.4223 405.645 71.0835C417.808 83.0911 424.497 99.8757 424.497 118.32C424.497 136.764 417.808 153.549 405.645 165.571C393.842 177.232 377.648 183.654 360.038 183.654V183.669ZM360.038 80.2624C337.242 80.2624 321.93 95.5605 321.93 118.334C321.93 141.108 337.242 156.407 360.038 156.407C382.834 156.407 398.147 141.108 398.147 118.334C398.147 95.5605 382.834 80.2624 360.038 80.2624Z" fill="white"/>
<path d="M489.749 184.059C459.08 184.059 435.967 160.607 435.967 129.52C435.967 98.4328 459.095 74.9805 489.749 74.9805C501.003 74.9805 515.305 77.8525 515.305 77.8525L509.974 103.715C509.974 103.715 501.191 101.377 491.714 101.377C474.711 101.377 464.31 115.881 464.31 129.534C464.31 143.187 474.726 157.691 491.714 157.691C498.807 157.691 509.959 155.858 509.959 155.858L514.178 181.447C514.178 181.447 501.552 184.088 489.735 184.088L489.749 184.059Z" fill="white"/>
<path d="M587.666 183.725C580.645 183.725 570.446 182.657 561.779 177.591C551.175 171.4 545.801 160.821 545.801 146.172V103.179H526.949V78.6152C550.785 76.3927 551.565 60.2142 551.45 53.8496H576.673C576.99 59.4926 576.297 70.4033 572.396 76.9844H595.106V103.179H573.393V146.172C573.393 150.603 575.228 153.98 578.681 155.957C581.107 157.343 584.286 158.05 588.143 158.05C589.775 158.05 591.234 157.92 592.289 157.79V183.552C591.263 183.638 589.66 183.725 587.637 183.725H587.666Z" fill="white"/>
<path d="M654.334 183.669C622.683 183.669 608.121 159.827 605.261 139.406C601.779 114.496 613.293 84.9964 642.041 76.8134C647.443 75.2691 653.395 74.4609 659.231 74.4609C667.61 74.4609 679.832 76.1495 690.449 84.1594C704.52 94.767 711.656 112.807 711.656 137.789V182.673H685.278V171.229C685.278 171.229 676.104 183.655 654.334 183.655V183.669ZM657.657 101.305C641.911 101.305 631.322 112.461 631.322 129.043C631.322 145.626 641.911 156.782 657.657 156.782C673.403 156.782 683.992 145.626 683.992 129.043C683.992 112.461 673.403 101.305 657.657 101.305Z" fill="white"/>
<path d="M757.263 182.644L709.895 76.0195H741.474L771.131 140.676L797.423 76.0195H827.095L784.017 182.644H757.263Z" fill="white"/>
<path d="M205.419 100.526C205.309 97.6118 208.326 95.6318 210.978 96.8232V96.8418L226.154 103.625C226.959 103.973 227.489 104.798 227.471 105.678C226.593 146.539 201.505 184.743 161.076 200.271C114.43 218.18 62.8657 199.995 36.9736 159.391L37.1201 159.94L1.55469 106.062C-1.53519 101.388 0.129017 99.4264 5.23047 101.718L37.083 115.962C41.3984 117.887 44.5985 121.645 45.915 126.191C46.5367 128.355 47.2504 130.5 48.0732 132.645C55.8446 152.993 71.0583 169.087 90.916 177.96C101.521 182.69 112.767 185.073 124.03 185.073C133.868 185.073 143.724 183.259 153.178 179.629C173.474 171.838 189.529 156.585 198.379 136.677C203.517 125.128 205.876 112.809 205.419 100.526ZM190.582 87.6123C195.657 89.8914 199.929 96.3419 200.038 101.929C200.33 116.448 196.459 130.967 188.445 143.997C182.64 153.443 169.734 165.536 159.986 170.719C138.865 181.93 114.732 182.665 93.3916 173.09C74.9176 164.783 60.7521 149.731 53.5049 130.709L53.4316 130.488C51.588 125.618 53.9615 123.357 58.6895 125.489L72.2891 131.591C75.4289 133.006 79.9015 136.241 82.1104 138.906C96.7509 156.531 121.414 163.754 143.922 155.079C172.254 144.144 186.438 112.166 175.576 83.624C175.138 82.4662 174.645 81.3447 174.134 80.2236L190.582 87.6123ZM123.558 27.418C134.062 27.418 144.531 29.6443 154.414 34.0791C172.903 42.3969 187.08 57.4684 194.333 76.5146C196.215 81.4464 193.821 83.7282 189.034 81.5752L175.405 75.4473C171.66 73.7543 168.244 71.3437 165.613 68.1787C150.943 50.6047 126.316 43.4273 103.845 52.0947L103.863 52.1133C75.5094 63.0626 61.3144 95.101 72.1846 123.661C72.623 124.784 73.08 125.869 73.5732 126.937L57.2217 119.594C51.5767 117.054 47.8498 111.46 47.7402 105.24C47.1922 74.012 65.8267 44.3115 96.4092 32.5156C105.215 29.1112 114.386 27.418 123.558 27.418ZM86.7598 6.90039C133.45 -11.0453 185.082 7.19437 210.988 47.875L246.226 101.033C249.318 105.712 247.652 107.676 242.548 105.382L210.805 91.1797C206.487 89.253 203.285 85.5096 201.968 80.959C201.346 78.8122 200.632 76.7019 199.827 74.5918C192.052 54.2241 176.83 38.1135 156.961 29.2324C137.092 20.333 114.972 19.7455 94.6641 27.5439C61.3842 40.3335 41.2768 72.7752 42.4111 106.63C42.5026 109.547 39.5024 111.529 36.8496 110.337L21.6279 103.529C20.8046 103.181 20.2923 102.354 20.3105 101.474C21.2436 60.6096 46.3448 22.424 86.7598 6.90039Z" fill="#FF1A45"/>
</svg>
